<svg width="522.6" height="117.8088367899008" viewBox="0 0 369.6666666666667 83.33333333333333" class="css-1j8o68f"><defs id="SvgjsDefs1187"></defs><g id="SvgjsG1188" featurekey="symbolFeature-0" transform="matrix(0.9259259259259258,0,0,0.9259259259259258,-4.629629629629629,-4.629629629629629)" fill="#ffffff"><path xmlns="http://www.w3.org/2000/svg" d="M95,27.6l0-0.2L95,27.6L69.2,5L5,14.6l6.4,51.5l2.5-0.4L20,82.6l3.1-1.1L30.9,95l57.8-32.1l5.6-32.1L95,27.6L95,27.6  L95,27.6z M76.8,25c2.6-0.4,5.1,1.5,5.5,4.1c0.4,2.6-1.5,5.1-4.1,5.5c-2.7,0.4-5.1-1.5-5.5-4.1C72.3,27.8,74.2,25.4,76.8,25z   M22,78.5l-4.8-13.3l58.6-8.7l11.3-16.9l-7,19.1L22,78.5z M85.8,60.8L32.1,90.6l-5.9-10.2l56.3-19.3l6-16.5L85.8,60.8z"></path></g><g id="SvgjsG1189" featurekey="nameFeature-0" transform="matrix(1.346479672494132,0,0,1.346479672494132,102.47419959543562,5.298088504698944)" fill="#ffffff"><path d="M13.594 22.988 l0.74219 2.2266 l-1.4844 4.2773 l-1.5234 0 z M19.824 14.043 c-0.57291 0.32553 -0.98959 0.78125 -1.25 1.3672 c-0.14322 0.32553 -0.21484 0.65756 -0.21484 0.99609 c0 0.28646 0.05209 0.57943 0.15625 0.87891 c-0.49479 -1.3672 -0.76822 -2.1094 -0.82031 -2.2266 c-0.078125 -0.23438 -0.11719 -0.45572 -0.11719 -0.66406 c0 -0.29947 0.078125 -0.57291 0.23438 -0.82031 l0.097656 -0.019531 l0.078125 0 c0.66406 0 1.276 0.16275 1.8359 0.48828 z M17.832 35.8984 c0.11719 0.32553 0.22785 0.63799 0.33201 0.93746 l-7.793 0 c0 0.013027 -0.026035 0.091152 -0.078125 0.23438 l-0.019531 0.097656 l-0.039063 0.11719 l-0.097656 0.25391 c-0.14322 0.49479 -0.24738 0.82031 -0.31248 0.97656 l-0.078125 0.25391 c-0.45572 -0.32553 -0.78125 -0.74219 -0.97656 -1.25 c-0.013027 -0.026035 -0.019531 -0.065098 -0.019531 -0.11719 c0 -0.10416 0.032559 -0.24738 0.097656 -0.42967 c0.026035 -0.10416 0.078125 -0.26041 0.15625 -0.46875 c0.05209 -0.18229 0.11068 -0.3841 0.17578 -0.60545 l8.6523 0 z M24.512 27.793 c-0.42969 0.50781 -0.72266 1.0873 -0.87891 1.7383 c-0.078125 0.29947 -0.11719 0.59895 -0.11719 0.89842 c0 0.36459 0.065098 0.72266 0.19531 1.0742 l-0.83984 -2.2656 c-0.11719 -0.3125 -0.17578 -0.625 -0.17578 -0.9375 c0 -0.39063 0.091152 -0.78125 0.27344 -1.1719 c0.48178 0.35156 0.99609 0.57291 1.543 0.66406 z M23.496 40.93748 l0.058594 0.21484 c-0.67709 0.58594 -1.4648 0.87891 -2.3633 0.87891 c-0.65104 0 -1.263 -0.16275 -1.8359 -0.48828 c0.20834 -0.11719 0.42969 -0.28646 0.66406 -0.50781 c0.76822 -0.11719 1.4583 -0.41016 2.0703 -0.87891 l0.13672 0.11719 c0.39063 0.27344 0.80729 0.47525 1.25 0.60547 z M27.285 40.35154 c0.32553 0.52084 0.72918 0.91797 1.211 1.1914 c-0.57291 0.32553 -1.1849 0.48828 -1.8359 0.48828 c-0.75521 0 -1.4518 -0.22135 -2.0898 -0.66406 l-0.097656 -0.29297 l0.17578 0 l0.17578 0.019531 c0.80729 0 1.5625 -0.20182 2.2656 -0.60547 c0.065098 -0.039063 0.1302 -0.084629 0.19529 -0.13672 z M10.117 40.35154 c0.33854 0.50781 0.74867 0.90494 1.2304 1.1914 c-0.5599 0.32553 -1.1654 0.48828 -1.8164 0.48828 c-0.89844 0 -1.6927 -0.29947 -2.3828 -0.89844 l0.039063 -0.078125 l0.25391 0.019531 l0.25391 0.019531 c0.82031 0 1.5755 -0.20182 2.2656 -0.60547 c0.05209 -0.039063 0.10418 -0.084629 0.15627 -0.13672 z M4.9414 40.15623 c0.40365 0.3125 0.85285 0.54689 1.3476 0.70314 l-0.17578 0.52734 c-0.61197 0.42969 -1.2956 0.64453 -2.0508 0.64453 c-0.65104 0 -1.263 -0.16275 -1.8359 -0.48828 c0.20834 -0.11719 0.42318 -0.28646 0.64453 -0.50781 c0.70313 -0.091152 1.3412 -0.33855 1.9141 -0.74221 c0.065098 -0.039063 0.11719 -0.084629 0.15625 -0.13672 z M22.891 31.875 c0.091152 0.26041 0.22139 0.62498 0.39066 1.0937 l0.19531 0.54688 l0.19531 0.50781 c0.58594 1.6276 1.0287 2.8451 1.3281 3.6523 c0.33854 0.91146 0.89191 1.5886 1.6601 2.0313 c-0.57291 0.32553 -1.1849 0.48828 -1.8359 0.48828 c-0.75521 0 -1.4518 -0.22135 -2.0898 -0.66406 l-2.4219 -7.2461 l-6.5234 -19.688 c0.6901 -0.58594 1.4779 -0.87891 2.3633 -0.87891 c0.66406 0 1.276 0.16275 1.8359 0.48828 c-0.5599 0.32553 -0.94402 0.76824 -1.1524 1.3281 c-0.10416 0.27344 -0.15625 0.5599 -0.15625 0.85938 c0 0.3125 0.058594 0.63803 0.17578 0.97656 c0.026035 0.05209 0.11719 0.306 0.27344 0.76172 c0.19531 0.52084 0.42318 1.1328 0.68359 1.8359 c0.70313 1.9271 1.3867 3.8086 2.0508 5.6445 c0.48178 1.3151 1.4193 2.0963 2.8125 2.3438 c-0.59896 0.70313 -0.89844 1.4583 -0.89844 2.2656 c0 0.42969 0.084629 0.8724 0.25391 1.3281 c0.2474 0.66406 0.53387 1.4388 0.85939 2.3242 z M19.668 33.1445 l1.9922 5.957 l0.058594 0.21484 c-0.67709 0.58594 -1.4648 0.87891 -2.3633 0.87891 c-0.65104 0 -1.263 -0.16275 -1.8359 -0.48828 c0.75521 -0.44271 1.2891 -1.0677 1.6016 -1.875 c0.039063 -0.11719 0.058594 -0.2474 0.058594 -0.39063 c0 -0.22135 -0.045566 -0.47525 -0.13672 -0.76172 c-0.05209 -0.16928 -0.15625 -0.4948 -0.3125 -0.97658 l-0.097656 -0.25391 c-0.026035 -0.065098 -0.05207 -0.13672 -0.078105 -0.21484 c-0.039063 -0.14322 -0.065098 -0.22135 -0.078125 -0.23438 l-9.9414 0 c0 0.013027 -0.026035 0.091152 -0.078125 0.23438 l-0.039063 0.097656 l-0.019531 0.11719 l-0.097656 0.25391 c-0.14322 0.49479 -0.24738 0.82031 -0.31248 0.97656 c-0.091152 0.27344 -0.13672 0.51432 -0.13672 0.72266 c0 0.15625 0.026035 0.29947 0.078125 0.42969 c0.29947 0.80729 0.82682 1.4323 1.582 1.875 c-0.5599 0.32553 -1.1654 0.48828 -1.8164 0.48828 c-0.89844 0 -1.6927 -0.29947 -2.3828 -0.89844 l2.0313 -6.1523 l12.324 0 z M13.613 20.215 l-3.5547 10.176 l6.9727 0 z M19.375 32.2461 l-11.738 0 l5.8789 -17.637 z M6.6795 32.2461 l-2.4023 7.3047 c-0.61197 0.42969 -1.2956 0.64453 -2.0508 0.64453 c-0.65104 0 -1.263 -0.16275 -1.8359 -0.48828 c0.76822 -0.44271 1.3151 -1.1198 1.6406 -2.0313 c0.27344 -0.72916 0.71615 -1.9466 1.3281 -3.6523 l0.19531 -0.52734 l0.19531 -0.52734 c0.14322 -0.40365 0.27344 -0.76824 0.39063 -1.0938 c0.29947 -0.84635 0.57941 -1.6211 0.83982 -2.3242 c0.16928 -0.45572 0.25391 -0.89844 0.25391 -1.3281 c0 -0.80729 -0.29297 -1.5625 -0.87891 -2.2656 c1.3802 -0.2474 2.3111 -1.0287 2.793 -2.3438 c0.6901 -1.875 1.3737 -3.7564 2.0508 -5.6445 c0.59896 -1.6276 0.91797 -2.4936 0.95703 -2.5977 c0.11719 -0.33854 0.17578 -0.66406 0.17578 -0.97656 c0 -0.29947 -0.05209 -0.58594 -0.15625 -0.85938 c-0.20834 -0.5599 -0.59246 -1.0026 -1.1524 -1.3281 c0.57291 -0.32553 1.1849 -0.48828 1.8359 -0.48828 c0.89844 0 1.6927 0.29297 2.3828 0.87891 z M34.62925 14.043 c-0.75521 0.44271 -1.2826 1.0612 -1.582 1.8554 c-0.10416 0.27344 -0.17578 0.67709 -0.21484 1.2109 c-0.40365 -1.237 -0.63803 -1.9662 -0.70313 -2.1875 c-0.065098 -0.18229 -0.097656 -0.32551 -0.097656 -0.42967 c0 -0.039063 0.0065041 -0.071621 0.019531 -0.097656 c0.11719 -0.29947 0.27994 -0.57291 0.48828 -0.82031 l0.13672 -0.019531 l0.13672 0 c0.65104 0 1.2565 0.16275 1.8164 0.48828 z M36.73825 40.17572 c0.40365 0.3125 0.86586 0.54689 1.3867 0.70314 l0.078125 0.27344 c-0.6901 0.58594 -1.4779 0.87891 -2.3633 0.87891 c-0.66406 0 -1.276 -0.16275 -1.8359 -0.48828 c0.23438 -0.13021 0.44271 -0.29949 0.625 -0.50783 c0.78125 -0.10416 1.4844 -0.39063 2.1094 -0.85938 z M41.99225 40.25387 c0.22135 0.54688 0.59896 0.97656 1.1328 1.2891 c-0.5599 0.32553 -1.1654 0.48828 -1.8164 0.48828 c-0.89844 0 -1.6927 -0.29297 -2.3828 -0.87891 l0.039063 -0.097656 l0.25391 0.019531 l0.25391 0.019531 c0.80729 0 1.5625 -0.20182 2.2656 -0.60547 c0.091152 -0.05209 0.17578 -0.13021 0.25391 -0.23438 z M49.804249999999996 13.555 c0.65104 0 1.263 0.1627 1.8359 0.48822 c-0.76822 0.44271 -1.3216 1.1198 -1.6601 2.0313 c-0.2474 0.66406 -0.67709 1.8815 -1.2891 3.6523 c-0.32553 0.91146 -0.57943 1.6276 -0.76172 2.1484 c-0.29947 0.83334 -0.57941 1.6081 -0.83982 2.3242 c-0.16928 0.45572 -0.25391 0.89844 -0.25391 1.3281 c0 0.80729 0.29947 1.5625 0.89844 2.2656 c-1.3932 0.2474 -2.3307 1.0287 -2.8125 2.3438 l-2.9102 8.2422 c-0.065098 0.18229 -0.11719 0.39713 -0.15625 0.64453 l-0.058594 -0.058594 l-0.058594 -0.039063 c-0.58594 -0.32553 -0.87891 -0.76824 -0.87891 -1.3281 c0 -0.23438 0.05209 -0.48828 0.15625 -0.76172 l2.9102 -8.2227 c0.36459 -1.0026 1.0742 -1.595 2.1289 -1.7773 c0.33854 -0.065098 0.56641 -0.25391 0.68359 -0.56641 c0.039063 -0.11719 0.058594 -0.22787 0.058594 -0.33203 c0 -0.19531 -0.071621 -0.38412 -0.21484 -0.56641 c-0.45572 -0.53385 -0.68359 -1.1068 -0.68359 -1.7187 c0 -0.3125 0.065098 -0.64453 0.19531 -0.99609 c0.27344 -0.71615 0.5599 -1.5104 0.85938 -2.3828 c0.13021 -0.33854 0.26693 -0.71613 0.41016 -1.1328 l0.19531 -0.54688 l0.17578 -0.54688 c0.58594 -1.6667 1.0026 -2.832 1.25 -3.4961 c0.13021 -0.36459 0.31902 -0.69012 0.56643 -0.97658 l0.13672 -0.019531 l0.11719 0 z M45.91825 12.344000000000001 c0.625 -0.41666 1.3086 -0.62506 2.0508 -0.62506 c0.65104 0 1.2565 0.16275 1.8164 0.48828 c-0.76822 0.44271 -1.3151 1.1198 -1.6406 2.0313 c-0.2474 0.66406 -0.67709 1.8815 -1.2891 3.6523 c-0.32553 0.89844 -0.57943 1.6146 -0.76172 2.1484 c-0.29947 0.83334 -0.57941 1.6081 -0.83982 2.3242 c-0.16928 0.45572 -0.25391 0.89844 -0.25391 1.3281 c0 0.80729 0.29947 1.5625 0.89844 2.2656 c-1.3932 0.2474 -2.3307 1.0287 -2.8125 2.3438 l-2.9102 8.2422 c-0.13021 0.33854 -0.19531 0.67057 -0.19531 0.99609 c0 0.28646 0.05209 0.56641 0.15625 0.83984 c0.20834 0.5599 0.59246 1.0026 1.1524 1.3281 c-0.5599 0.32553 -1.1654 0.48828 -1.8164 0.48828 c-0.89844 0 -1.6927 -0.29297 -2.3828 -0.87891 z M23.67178 12.207 c0.5599 -0.32553 1.1718 -0.48824 1.8359 -0.48824 c0.75521 0 1.4453 0.21484 2.0703 0.64453 l8.7891 26.953 c-0.6901 0.58594 -1.4779 0.87891 -2.3633 0.87891 c-0.66406 0 -1.276 -0.16275 -1.8359 -0.48828 c0.5599 -0.32553 0.94402 -0.76824 1.1524 -1.3281 c0.10416 -0.27344 0.15625 -0.5599 0.15625 -0.85938 c0 -0.3125 -0.058594 -0.63803 -0.17578 -0.97656 c-0.013027 -0.013027 -0.10418 -0.26693 -0.27346 -0.76172 c-0.091152 -0.28646 -0.1823 -0.5599 -0.27346 -0.82031 l-0.35156 -1.0156 c-0.3125 -0.88541 -0.6185 -1.7513 -0.91797 -2.5977 c-0.3776 -1.0677 -0.74219 -2.0834 -1.0938 -3.0469 c-0.48178 -1.3151 -1.4193 -2.0963 -2.8125 -2.3438 c0.59896 -0.70313 0.89844 -1.4583 0.89844 -2.2656 c0 -0.42969 -0.084629 -0.8724 -0.25391 -1.3281 c-0.26041 -0.71615 -0.54035 -1.4909 -0.83982 -2.3242 c-0.19531 -0.53385 -0.44922 -1.25 -0.76172 -2.1484 l-1.2891 -3.6523 c-0.33854 -0.91146 -0.89191 -1.5886 -1.6601 -2.0313 z M44.883250000000004 12.617 l-8.1445 24.922 l-8.1445 -24.941 c0.6901 -0.58594 1.4779 -0.87891 2.3633 -0.87891 c0.66406 0 1.276 0.16275 1.8359 0.48828 c-0.75521 0.44271 -1.2826 1.0612 -1.582 1.8555 c-0.05209 0.13021 -0.078125 0.27344 -0.078125 0.42969 c0 0.20834 0.045566 0.44922 0.13672 0.72266 s1.8815 5.8463 5.3711 16.719 c3.6068 -10.872 5.4557 -16.445 5.5469 -16.719 c0.091152 -0.28646 0.13672 -0.54037 0.13672 -0.76172 c0 -0.14322 -0.019531 -0.27344 -0.058594 -0.39063 c-0.3125 -0.79428 -0.84635 -1.4128 -1.6016 -1.8555 c0.57291 -0.32553 1.1849 -0.48828 1.8359 -0.48828 c0.89844 0 1.6927 0.29947 2.3828 0.89844 z M61.0549375 22.988 l0.74219 2.2266 l-1.4844 4.2773 l-1.5234 0 z M67.2849375 14.043 c-0.57291 0.32553 -0.98959 0.78125 -1.25 1.3672 c-0.14322 0.32553 -0.21484 0.65756 -0.21484 0.99609 c0 0.28646 0.05209 0.57943 0.15625 0.87891 c-0.49479 -1.3672 -0.76822 -2.1094 -0.82031 -2.2266 c-0.078125 -0.23438 -0.11719 -0.45572 -0.11719 -0.66406 c0 -0.29947 0.078125 -0.57291 0.23438 -0.82031 l0.097656 -0.019531 l0.078125 0 c0.66406 0 1.276 0.16275 1.8359 0.48828 z M65.2929375 35.8984 c0.11719 0.32553 0.22785 0.63799 0.33201 0.93746 l-7.793 0 c0 0.013027 -0.026035 0.091152 -0.078125 0.23438 l-0.019531 0.097656 l-0.039063 0.11719 l-0.097656 0.25391 c-0.14322 0.49479 -0.24738 0.82031 -0.31248 0.97656 l-0.078125 0.25391 c-0.45572 -0.32553 -0.78125 -0.74219 -0.97656 -1.25 c-0.013027 -0.026035 -0.019531 -0.065098 -0.019531 -0.11719 c0 -0.10416 0.032559 -0.24738 0.097656 -0.42967 c0.026035 -0.10416 0.078125 -0.26041 0.15625 -0.46875 c0.05209 -0.18229 0.11068 -0.3841 0.17578 -0.60545 l8.6523 0 z M71.9729375 27.793 c-0.42969 0.50781 -0.72266 1.0873 -0.87891 1.7383 c-0.078125 0.29947 -0.11719 0.59895 -0.11719 0.89842 c0 0.36459 0.065098 0.72266 0.19531 1.0742 l-0.83984 -2.2656 c-0.11719 -0.3125 -0.17578 -0.625 -0.17578 -0.9375 c0 -0.39063 0.091152 -0.78125 0.27344 -1.1719 c0.48178 0.35156 0.99609 0.57291 1.543 0.66406 z M70.9569375 40.93748 l0.058594 0.21484 c-0.67709 0.58594 -1.4648 0.87891 -2.3633 0.87891 c-0.65104 0 -1.263 -0.16275 -1.8359 -0.48828 c0.20834 -0.11719 0.42969 -0.28646 0.66406 -0.50781 c0.76822 -0.11719 1.4583 -0.41016 2.0703 -0.87891 l0.13672 0.11719 c0.39063 0.27344 0.80729 0.47525 1.25 0.60547 z M74.7459375 40.35154 c0.32553 0.52084 0.72918 0.91797 1.211 1.1914 c-0.57291 0.32553 -1.1849 0.48828 -1.8359 0.48828 c-0.75521 0 -1.4518 -0.22135 -2.0898 -0.66406 l-0.097656 -0.29297 l0.17578 0 l0.17578 0.019531 c0.80729 0 1.5625 -0.20182 2.2656 -0.60547 c0.065098 -0.039063 0.1302 -0.084629 0.19529 -0.13672 z M57.577937500000004 40.35154 c0.33854 0.50781 0.74867 0.90494 1.2304 1.1914 c-0.5599 0.32553 -1.1654 0.48828 -1.8164 0.48828 c-0.89844 0 -1.6927 -0.29947 -2.3828 -0.89844 l0.039063 -0.078125 l0.25391 0.019531 l0.25391 0.019531 c0.82031 0 1.5755 -0.20182 2.2656 -0.60547 c0.05209 -0.039063 0.10418 -0.084629 0.15627 -0.13672 z M52.4023375 40.15623 c0.40365 0.3125 0.85285 0.54689 1.3476 0.70314 l-0.17578 0.52734 c-0.61197 0.42969 -1.2956 0.64453 -2.0508 0.64453 c-0.65104 0 -1.263 -0.16275 -1.8359 -0.48828 c0.20834 -0.11719 0.42318 -0.28646 0.64453 -0.50781 c0.70313 -0.091152 1.3412 -0.33855 1.9141 -0.74221 c0.065098 -0.039063 0.11719 -0.084629 0.15625 -0.13672 z M70.35193749999999 31.875 c0.091152 0.26041 0.22139 0.62498 0.39066 1.0937 l0.19531 0.54688 l0.19531 0.50781 c0.58594 1.6276 1.0287 2.8451 1.3281 3.6523 c0.33854 0.91146 0.89191 1.5886 1.6601 2.0313 c-0.57291 0.32553 -1.1849 0.48828 -1.8359 0.48828 c-0.75521 0 -1.4518 -0.22135 -2.0898 -0.66406 l-2.4219 -7.2461 l-6.5234 -19.688 c0.6901 -0.58594 1.4779 -0.87891 2.3633 -0.87891 c0.66406 0 1.276 0.16275 1.8359 0.48828 c-0.5599 0.32553 -0.94402 0.76824 -1.1524 1.3281 c-0.10416 0.27344 -0.15625 0.5599 -0.15625 0.85938 c0 0.3125 0.058594 0.63803 0.17578 0.97656 c0.026035 0.05209 0.11719 0.306 0.27344 0.76172 c0.19531 0.52084 0.42318 1.1328 0.68359 1.8359 c0.70313 1.9271 1.3867 3.8086 2.0508 5.6445 c0.48178 1.3151 1.4193 2.0963 2.8125 2.3438 c-0.59896 0.70313 -0.89844 1.4583 -0.89844 2.2656 c0 0.42969 0.084629 0.8724 0.25391 1.3281 c0.2474 0.66406 0.53387 1.4388 0.85939 2.3242 z M67.1289375 33.1445 l1.9922 5.957 l0.058594 0.21484 c-0.67709 0.58594 -1.4648 0.87891 -2.3633 0.87891 c-0.65104 0 -1.263 -0.16275 -1.8359 -0.48828 c0.75521 -0.44271 1.2891 -1.0677 1.6016 -1.875 c0.039063 -0.11719 0.058594 -0.2474 0.058594 -0.39063 c0 -0.22135 -0.045566 -0.47525 -0.13672 -0.76172 c-0.05209 -0.16928 -0.15625 -0.4948 -0.3125 -0.97658 l-0.097656 -0.25391 c-0.026035 -0.065098 -0.05207 -0.13672 -0.078105 -0.21484 c-0.039063 -0.14322 -0.065098 -0.22135 -0.078125 -0.23438 l-9.9414 0 c0 0.013027 -0.026035 0.091152 -0.078125 0.23438 l-0.039063 0.097656 l-0.019531 0.11719 l-0.097656 0.25391 c-0.14322 0.49479 -0.24738 0.82031 -0.31248 0.97656 c-0.091152 0.27344 -0.13672 0.51432 -0.13672 0.72266 c0 0.15625 0.026035 0.29947 0.078125 0.42969 c0.29947 0.80729 0.82682 1.4323 1.582 1.875 c-0.5599 0.32553 -1.1654 0.48828 -1.8164 0.48828 c-0.89844 0 -1.6927 -0.29947 -2.3828 -0.89844 l2.0313 -6.1523 l12.324 0 z M61.0739375 20.215 l-3.5547 10.176 l6.9727 0 z M66.8359375 32.2461 l-11.738 0 l5.8789 -17.637 z M54.1404375 32.2461 l-2.4023 7.3047 c-0.61197 0.42969 -1.2956 0.64453 -2.0508 0.64453 c-0.65104 0 -1.263 -0.16275 -1.8359 -0.48828 c0.76822 -0.44271 1.3151 -1.1198 1.6406 -2.0313 c0.27344 -0.72916 0.71615 -1.9466 1.3281 -3.6523 l0.19531 -0.52734 l0.19531 -0.52734 c0.14322 -0.40365 0.27344 -0.76824 0.39063 -1.0938 c0.29947 -0.84635 0.57941 -1.6211 0.83982 -2.3242 c0.16928 -0.45572 0.25391 -0.89844 0.25391 -1.3281 c0 -0.80729 -0.29297 -1.5625 -0.87891 -2.2656 c1.3802 -0.2474 2.3111 -1.0287 2.793 -2.3438 c0.6901 -1.875 1.3737 -3.7564 2.0508 -5.6445 c0.59896 -1.6276 0.91797 -2.4936 0.95703 -2.5977 c0.11719 -0.33854 0.17578 -0.66406 0.17578 -0.97656 c0 -0.29947 -0.05209 -0.58594 -0.15625 -0.85938 c-0.20834 -0.5599 -0.59246 -1.0026 -1.1524 -1.3281 c0.57291 -0.32553 1.1849 -0.48828 1.8359 -0.48828 c0.89844 0 1.6927 0.29297 2.3828 0.87891 z M86.07425625 27.344 l0 11.152 l0.019531 0.11719 c-0.63803 -0.54688 -0.95703 -1.237 -0.95703 -2.0703 l0 -10.684 z M81.50395625 40.17578 c0.40365 0.3125 0.8659 0.54689 1.3867 0.70314 l0 0.35156 c-0.67709 0.53385 -1.4388 0.80078 -2.2852 0.80078 c-0.66406 0 -1.276 -0.16275 -1.8359 -0.48828 c0.23438 -0.13021 0.45572 -0.29949 0.66406 -0.50783 c0.76822 -0.11719 1.4583 -0.40365 2.0703 -0.85938 z M103.86765625 14.043 c-1.224 0.70313 -1.8359 1.7578 -1.8359 3.1641 l0 7.4219 l0.019531 0.11719 l0 0.11719 c-0.63803 -0.5599 -0.95703 -1.25 -0.95703 -2.0703 l0 -7.4219 c0 -0.67709 0.22787 -1.2761 0.68359 -1.7969 l0.13672 -0.019531 l0.11719 0 c0.66406 0 1.276 0.16275 1.8359 0.48828 z M86.75765625 14.883 c-0.32553 -0.50781 -0.50131 -0.95051 -0.52734 -1.3281 c0.61197 0.026035 1.1719 0.18879 1.6797 0.48826 c-0.49479 0.27344 -0.74219 0.6901 -0.74219 1.25 c0 0.091152 0.0065041 0.17578 0.019531 0.25391 z M102.63665625 26.621000000000002 c0.32553 0.49479 0.73566 0.88541 1.2304 1.1719 c-1.224 0.70313 -1.8359 1.7578 -1.8359 3.1641 l0 7.4219 l0.019531 0.11719 l0 0.11719 c-0.63803 -0.54688 -0.95703 -1.237 -0.95703 -2.0703 l0 -7.4219 c0 -1.0547 0.46225 -1.849 1.3867 -2.3828 c0.05209 -0.026035 0.10418 -0.065098 0.15627 -0.11719 z M86.66065625 40.37115 c0.32553 0.49479 0.73564 0.88541 1.2304 1.1719 c-0.57291 0.32553 -1.1784 0.48828 -1.8164 0.48828 c-0.84635 0 -1.6081 -0.26693 -2.2852 -0.80078 l0 -0.17578 l0.21484 0.019531 l0.23438 0.019531 c0.79428 0 1.5495 -0.20182 2.2656 -0.60547 c0.05209 -0.026035 0.10418 -0.065098 0.15627 -0.11719 z M102.63665625 40.37115 c0.32553 0.49479 0.73566 0.88541 1.2304 1.1719 c-0.5599 0.32553 -1.1654 0.48828 -1.8164 0.48828 c-0.85938 0 -1.6211 -0.26693 -2.2852 -0.80078 l0 -0.17578 l0.21484 0.019531 l0.21484 0.019531 c0.82031 0 1.582 -0.20182 2.2852 -0.60547 c0.05209 -0.026035 0.10418 -0.065098 0.15627 -0.11719 z M97.48065625 40.17584 c0.40365 0.29947 0.85283 0.53385 1.3476 0.70313 l0.15625 0.23438 c-0.6901 0.61197 -1.4909 0.91797 -2.4023 0.91797 c-0.65104 0 -1.263 -0.16275 -1.8359 -0.48828 c0.20834 -0.11719 0.37762 -0.27994 0.50783 -0.48828 c0.83334 -0.10416 1.5755 -0.39713 2.2266 -0.87891 z M100.19565625 11.719000000000001 c0.66406 0 1.276 0.16275 1.8359 0.48828 c-1.224 0.70313 -1.8359 1.7578 -1.8359 3.1641 l0 7.4219 c0 1.4063 0.61197 2.4609 1.8359 3.1641 c-1.224 0.70313 -1.8359 1.7578 -1.8359 3.1641 l0 7.4219 c0 1.3932 0.61197 2.4479 1.8359 3.1641 c-0.5599 0.32553 -1.1719 0.48828 -1.8359 0.48828 c-0.84635 0 -1.6016 -0.26693 -2.2656 -0.80078 l0 -26.875 c0.66406 -0.53385 1.4193 -0.80078 2.2656 -0.80078 z M84.23805625 40.19537 c-0.84635 0 -1.6081 -0.26691 -2.2852 -0.80076 l0 -24.883 l15.195 24.766 c-0.6901 0.61197 -1.4909 0.91797 -2.4023 0.91797 c-0.65104 0 -1.263 -0.16275 -1.8359 -0.48828 c0.48178 -0.28646 0.72266 -0.70965 0.72266 -1.2696 l0 -0.097656 c-0.026035 -0.53385 -0.24738 -1.1328 -0.66404 -1.7969 l-8.7305 -13.789 l0 13.789 c0 1.3932 0.60547 2.4479 1.8164 3.1641 c-0.57291 0.32553 -1.1784 0.48828 -1.8164 0.48828 z M94.74565625 11.719000000000001 c0.84635 0 1.6081 0.26691 2.2852 0.80076 l-0.019531 24.883 l-15.176 -24.785 c0.6901 -0.59896 1.4909 -0.89844 2.4023 -0.89844 c0.65104 0 1.2565 0.16275 1.8164 0.48828 c-0.48178 0.28646 -0.72266 0.70965 -0.72266 1.2696 l0 0.097656 c0.026035 0.53385 0.25391 1.1328 0.68359 1.7969 l8.7305 13.73 l0 -13.73 c0 -1.4063 -0.61197 -2.4609 -1.8359 -3.1641 c0.5599 -0.32553 1.1719 -0.48828 1.8359 -0.48828 z M78.76935625 11.719000000000001 c0.84635 0 1.6081 0.26693 2.2852 0.80078 l0 26.875 c-0.67709 0.53385 -1.4388 0.80078 -2.2852 0.80078 c-0.66406 0 -1.276 -0.16275 -1.8359 -0.48828 c1.224 -0.71615 1.8359 -1.7708 1.8359 -3.1641 l0 -7.4219 c0 -1.4063 -0.61197 -2.4609 -1.8359 -3.1641 c1.224 -0.70313 1.8359 -1.7578 1.8359 -3.1641 l0 -7.4219 c0 -1.4063 -0.61197 -2.4609 -1.8359 -3.1641 c0.5599 -0.32553 1.1719 -0.48828 1.8359 -0.48828 z M110.351525 18.73 c-1.4063 0 -2.4674 0.60547 -3.1836 1.8164 c-0.32553 -0.57291 -0.48828 -1.1784 -0.48828 -1.8164 l0 -0.13672 l0.019531 -0.13672 c0.52084 -0.44271 1.1198 -0.66406 1.7969 -0.66406 l2.7734 0 l0 0.9375 l-0.91797 0 z M114.902125 40.23438 c0.40365 0.3125 0.86588 0.54689 1.3867 0.70314 l0 0.35156 c-0.67709 0.53385 -1.4388 0.80078 -2.2852 0.80078 c-0.66406 0 -1.276 -0.16275 -1.8359 -0.48828 c0.23438 -0.13021 0.45572 -0.29949 0.66406 -0.50783 c0.75521 -0.11719 1.4453 -0.40365 2.0703 -0.85938 z M125.117125 14.453 c0.35156 -0.54688 0.57943 -1.1393 0.68359 -1.7773 c0.19531 -0.22135 0.35807 -0.4427 0.48828 -0.66404 c0.33854 0.57291 0.50781 1.1849 0.50781 1.8359 c-0.013027 0.71615 -0.21484 1.3802 -0.60547 1.9922 l-0.48828 0 c-0.11719 -0.50781 -0.3125 -0.97006 -0.58594 -1.3867 z M120.058125 40.42971 c0.32553 0.49479 0.73566 0.88541 1.2304 1.1719 c-0.5599 0.32553 -1.1654 0.48828 -1.8164 0.48828 c-0.85938 0 -1.6211 -0.26693 -2.2852 -0.80078 l0 -0.17578 l0.21484 0.019531 l0.23438 0.019531 c0.80729 0 1.5625 -0.20182 2.2656 -0.60547 c0.05209 -0.026035 0.10418 -0.065098 0.15627 -0.11719 z M126.191125 16.738 c0.39063 0.59896 0.58594 1.237 0.58594 1.9141 l0 0.058594 c0 0.65104 -0.16275 1.263 -0.48828 1.8359 c-0.28646 -0.49479 -0.67709 -0.90494 -1.1719 -1.2305 c0.05209 -0.05209 0.091152 -0.10418 0.11719 -0.15627 c0.40365 -0.70313 0.60547 -1.4648 0.60547 -2.2852 l0 -0.13672 l0.35156 0 z M121.289125 17.793 c0.83334 0 1.5234 0.319 2.0703 0.95703 l-0.11719 -0.019531 l-3.7695 0 l0 6.0742 l0.019531 0.11719 c-0.63803 -0.54688 -0.95703 -1.237 -0.95703 -2.0703 l0 -5.0586 l2.7539 0 z M120.058125 26.68 c0.32553 0.49479 0.73566 0.88543 1.2304 1.1719 c-1.2109 0.70313 -1.8164 1.7578 -1.8164 3.1641 l0 7.5391 l0.019531 0.11719 c-0.63803 -0.54688 -0.95703 -1.237 -0.95703 -2.0703 l0 -7.4219 c0 -1.0677 0.45572 -1.862 1.3672 -2.3828 c0.05209 -0.026035 0.10418 -0.065098 0.15627 -0.11719 z M115.351125 14.902000000000001 l8.9844 0.000019073 c0.40365 0.61197 0.60547 1.2695 0.60547 1.9727 c0 0.65104 -0.16275 1.263 -0.48828 1.8359 c-0.70313 -1.2109 -1.7578 -1.8164 -3.1641 -1.8164 l-3.6523 0 l0 5.957 c0 1.4063 0.60547 2.4609 1.8164 3.1641 c-1.2109 0.70313 -1.8164 1.7578 -1.8164 3.1641 l0 7.4219 c0 1.4063 0.60547 2.4609 1.8164 3.1641 c-0.5599 0.32553 -1.1654 0.48828 -1.8164 0.48828 c-0.85938 0 -1.6211 -0.26693 -2.2852 -0.80078 l0 -24.551 z M105.331955 18.711 c-0.32553 -0.57291 -0.48828 -1.1784 -0.48828 -1.8164 c0 -0.71615 0.20182 -1.3802 0.60547 -1.9922 l9.0039 0 l0 24.551 c-0.67709 0.53385 -1.4453 0.80078 -2.3047 0.80078 c-0.65104 0 -1.2565 -0.16275 -1.8164 -0.48828 c1.2109 -0.70313 1.8229 -1.7578 1.8359 -3.1641 l0 -7.4414 c-0.013027 -1.3932 -0.625 -2.4414 -1.8359 -3.1445 c1.2109 -0.70313 1.8229 -1.7513 1.8359 -3.1445 l0 -5.9766 l-3.6719 0 c-1.3932 0 -2.4479 0.60547 -3.1641 1.8164 z M121.289125 12.012 c1.4063 0 2.4609 -0.61197 3.1641 -1.8359 c0.32553 0.57291 0.48828 1.1849 0.48828 1.8359 c0 0.71615 -0.20182 1.3802 -0.60547 1.9922 l-18.887 0 c-0.40365 -0.61197 -0.60547 -1.276 -0.60547 -1.9922 c0 -0.65104 0.16275 -1.263 0.48828 -1.8359 c0.71615 1.224 1.7708 1.8359 3.1641 1.8359 l12.793 0 z M136.2111875 22.988 l0.74219 2.2266 l-1.4844 4.2773 l-1.5234 0 z M142.4411875 14.043 c-0.57291 0.32553 -0.98959 0.78125 -1.25 1.3672 c-0.14322 0.32553 -0.21484 0.65756 -0.21484 0.99609 c0 0.28646 0.05209 0.57943 0.15625 0.87891 c-0.49479 -1.3672 -0.76822 -2.1094 -0.82031 -2.2266 c-0.078125 -0.23438 -0.11719 -0.45572 -0.11719 -0.66406 c0 -0.29947 0.078125 -0.57291 0.23438 -0.82031 l0.097656 -0.019531 l0.078125 0 c0.66406 0 1.276 0.16275 1.8359 0.48828 z M140.4491875 35.8984 c0.11719 0.32553 0.22785 0.63799 0.33201 0.93746 l-7.793 0 c0 0.013027 -0.026035 0.091152 -0.078125 0.23438 l-0.019531 0.097656 l-0.039063 0.11719 l-0.097656 0.25391 c-0.14322 0.49479 -0.24738 0.82031 -0.31248 0.97656 l-0.078125 0.25391 c-0.45572 -0.32553 -0.78125 -0.74219 -0.97656 -1.25 c-0.013027 -0.026035 -0.019531 -0.065098 -0.019531 -0.11719 c0 -0.10416 0.032559 -0.24738 0.097656 -0.42967 c0.026035 -0.10416 0.078125 -0.26041 0.15625 -0.46875 c0.05209 -0.18229 0.11068 -0.3841 0.17578 -0.60545 l8.6523 0 z M147.1291875 27.793 c-0.42969 0.50781 -0.72266 1.0873 -0.87891 1.7383 c-0.078125 0.29947 -0.11719 0.59895 -0.11719 0.89842 c0 0.36459 0.065098 0.72266 0.19531 1.0742 l-0.83984 -2.2656 c-0.11719 -0.3125 -0.17578 -0.625 -0.17578 -0.9375 c0 -0.39063 0.091152 -0.78125 0.27344 -1.1719 c0.48178 0.35156 0.99609 0.57291 1.543 0.66406 z M146.1131875 40.93748 l0.058594 0.21484 c-0.67709 0.58594 -1.4648 0.87891 -2.3633 0.87891 c-0.65104 0 -1.263 -0.16275 -1.8359 -0.48828 c0.20834 -0.11719 0.42969 -0.28646 0.66406 -0.50781 c0.76822 -0.11719 1.4583 -0.41016 2.0703 -0.87891 l0.13672 0.11719 c0.39063 0.27344 0.80729 0.47525 1.25 0.60547 z M149.9021875 40.35154 c0.32553 0.52084 0.72918 0.91797 1.211 1.1914 c-0.57291 0.32553 -1.1849 0.48828 -1.8359 0.48828 c-0.75521 0 -1.4518 -0.22135 -2.0898 -0.66406 l-0.097656 -0.29297 l0.17578 0 l0.17578 0.019531 c0.80729 0 1.5625 -0.20182 2.2656 -0.60547 c0.065098 -0.039063 0.1302 -0.084629 0.19529 -0.13672 z M132.7341875 40.35154 c0.33854 0.50781 0.74867 0.90494 1.2304 1.1914 c-0.5599 0.32553 -1.1654 0.48828 -1.8164 0.48828 c-0.89844 0 -1.6927 -0.29947 -2.3828 -0.89844 l0.039063 -0.078125 l0.25391 0.019531 l0.25391 0.019531 c0.82031 0 1.5755 -0.20182 2.2656 -0.60547 c0.05209 -0.039063 0.10418 -0.084629 0.15627 -0.13672 z M127.5585875 40.15623 c0.40365 0.3125 0.85285 0.54689 1.3476 0.70314 l-0.17578 0.52734 c-0.61197 0.42969 -1.2956 0.64453 -2.0508 0.64453 c-0.65104 0 -1.263 -0.16275 -1.8359 -0.48828 c0.20834 -0.11719 0.42318 -0.28646 0.64453 -0.50781 c0.70313 -0.091152 1.3412 -0.33855 1.9141 -0.74221 c0.065098 -0.039063 0.11719 -0.084629 0.15625 -0.13672 z M145.5081875 31.875 c0.091152 0.26041 0.22139 0.62498 0.39066 1.0937 l0.19531 0.54688 l0.19531 0.50781 c0.58594 1.6276 1.0287 2.8451 1.3281 3.6523 c0.33854 0.91146 0.89191 1.5886 1.6601 2.0313 c-0.57291 0.32553 -1.1849 0.48828 -1.8359 0.48828 c-0.75521 0 -1.4518 -0.22135 -2.0898 -0.66406 l-2.4219 -7.2461 l-6.5234 -19.688 c0.6901 -0.58594 1.4779 -0.87891 2.3633 -0.87891 c0.66406 0 1.276 0.16275 1.8359 0.48828 c-0.5599 0.32553 -0.94402 0.76824 -1.1524 1.3281 c-0.10416 0.27344 -0.15625 0.5599 -0.15625 0.85938 c0 0.3125 0.058594 0.63803 0.17578 0.97656 c0.026035 0.05209 0.11719 0.306 0.27344 0.76172 c0.19531 0.52084 0.42318 1.1328 0.68359 1.8359 c0.70313 1.9271 1.3867 3.8086 2.0508 5.6445 c0.48178 1.3151 1.4193 2.0963 2.8125 2.3438 c-0.59896 0.70313 -0.89844 1.4583 -0.89844 2.2656 c0 0.42969 0.084629 0.8724 0.25391 1.3281 c0.2474 0.66406 0.53387 1.4388 0.85939 2.3242 z M142.2851875 33.1445 l1.9922 5.957 l0.058594 0.21484 c-0.67709 0.58594 -1.4648 0.87891 -2.3633 0.87891 c-0.65104 0 -1.263 -0.16275 -1.8359 -0.48828 c0.75521 -0.44271 1.2891 -1.0677 1.6016 -1.875 c0.039063 -0.11719 0.058594 -0.2474 0.058594 -0.39063 c0 -0.22135 -0.045566 -0.47525 -0.13672 -0.76172 c-0.05209 -0.16928 -0.15625 -0.4948 -0.3125 -0.97658 l-0.097656 -0.25391 c-0.026035 -0.065098 -0.05207 -0.13672 -0.078105 -0.21484 c-0.039063 -0.14322 -0.065098 -0.22135 -0.078125 -0.23438 l-9.9414 0 c0 0.013027 -0.026035 0.091152 -0.078125 0.23438 l-0.039063 0.097656 l-0.019531 0.11719 l-0.097656 0.25391 c-0.14322 0.49479 -0.24738 0.82031 -0.31248 0.97656 c-0.091152 0.27344 -0.13672 0.51432 -0.13672 0.72266 c0 0.15625 0.026035 0.29947 0.078125 0.42969 c0.29947 0.80729 0.82682 1.4323 1.582 1.875 c-0.5599 0.32553 -1.1654 0.48828 -1.8164 0.48828 c-0.89844 0 -1.6927 -0.29947 -2.3828 -0.89844 l2.0313 -6.1523 l12.324 0 z M136.2301875 20.215 l-3.5547 10.176 l6.9727 0 z M141.9921875 32.2461 l-11.738 0 l5.8789 -17.637 z M129.2966875 32.2461 l-2.4023 7.3047 c-0.61197 0.42969 -1.2956 0.64453 -2.0508 0.64453 c-0.65104 0 -1.263 -0.16275 -1.8359 -0.48828 c0.76822 -0.44271 1.3151 -1.1198 1.6406 -2.0313 c0.27344 -0.72916 0.71615 -1.9466 1.3281 -3.6523 l0.19531 -0.52734 l0.19531 -0.52734 c0.14322 -0.40365 0.27344 -0.76824 0.39063 -1.0938 c0.29947 -0.84635 0.57941 -1.6211 0.83982 -2.3242 c0.16928 -0.45572 0.25391 -0.89844 0.25391 -1.3281 c0 -0.80729 -0.29297 -1.5625 -0.87891 -2.2656 c1.3802 -0.2474 2.3111 -1.0287 2.793 -2.3438 c0.6901 -1.875 1.3737 -3.7564 2.0508 -5.6445 c0.59896 -1.6276 0.91797 -2.4936 0.95703 -2.5977 c0.11719 -0.33854 0.17578 -0.66406 0.17578 -0.97656 c0 -0.29947 -0.05209 -0.58594 -0.15625 -0.85938 c-0.20834 -0.5599 -0.59246 -1.0026 -1.1524 -1.3281 c0.57291 -0.32553 1.1849 -0.48828 1.8359 -0.48828 c0.89844 0 1.6927 0.29297 2.3828 0.87891 z M166.62134375 21.523 c0.625 -0.10416 1.2109 -0.32553 1.7578 -0.66406 c0.40365 0.26041 0.8659 0.45572 1.3867 0.58594 l0 0.15625 l0.019531 0.3125 c-0.625 0.40365 -1.2956 0.60547 -2.0117 0.60547 c-0.65104 0 -1.2565 -0.16275 -1.8164 -0.48828 c0.22135 -0.14322 0.4427 -0.3125 0.66404 -0.50781 z M161.11334375 17.48 c1.25 0 2.2266 0.34508 2.9297 1.0352 c-0.36459 -0.05209 -0.72918 -0.078125 -1.0938 -0.078125 c-1.4583 0 -2.6236 0.49479 -3.4961 1.4844 c-0.42969 0.54688 -0.72916 1.1068 -0.89844 1.6797 c-0.20834 0.6901 -0.33855 1.7318 -0.39064 3.125 l0.019531 0.13672 c-0.625 -0.53385 -0.944 -1.1784 -0.95703 -1.9336 c0.05209 -1.3412 0.16928 -2.3242 0.35156 -2.9492 c0.13021 -0.44271 0.36459 -0.87891 0.70313 -1.3086 c0.70313 -0.79428 1.6471 -1.1914 2.832 -1.1914 z M173.10534375 20.957 c0.05209 -0.026035 0.10416 -0.065098 0.15625 -0.11719 c0.32553 0.50781 0.73568 0.90494 1.2305 1.1914 c-0.57291 0.32553 -1.1849 0.48828 -1.8359 0.48828 c-0.71615 0 -1.3737 -0.19531 -1.9727 -0.58594 l-0.019531 -0.37109 l0.078125 0.019531 l0.078125 0 c0.80729 0 1.569 -0.20834 2.2852 -0.625 z M173.53534375 25.566000000000003 c0.65104 0 1.2565 0.16273 1.8164 0.48826 c-1.2109 0.70313 -1.8164 1.7578 -1.8164 3.1641 l0 0.42969 c0 4.2447 -0.89193 7.3111 -2.6758 9.1992 c-2.0963 2.1225 -4.733 3.1836 -7.9102 3.1836 c-2.0834 0 -3.9518 -0.50781 -5.6055 -1.5234 c1.1979 0.39063 2.4545 0.58594 3.7695 0.58594 c3.4375 0 6.2891 -1.1588 8.5547 -3.4766 c1.9401 -2.0572 2.9166 -5.3256 2.9297 -9.8047 l0 -0.42969 c0 -0.6901 0.22787 -1.2956 0.68359 -1.8164 l0.25391 0 z M158.37894375 33.3594 l-0.078145 -0.078125 c-0.36459 -0.42969 -0.61199 -0.87891 -0.74221 -1.3477 c-0.18229 -0.59896 -0.29947 -1.5365 -0.35156 -2.8125 c0.013027 -1.0547 0.47527 -1.8555 1.3867 -2.4023 c0.05209 -0.026035 0.10418 -0.065098 0.15627 -0.11719 c0.32553 0.50781 0.73568 0.90494 1.2305 1.1914 c-1.2109 0.70313 -1.8229 1.7578 -1.8359 3.1641 c0.05209 1.0026 0.13021 1.8034 0.23438 2.4023 z M162.96834375 29.863 c0.52084 -0.45572 1.1198 -0.68359 1.7969 -0.68359 l0.60547 0 l0 0.82031 l-0.019531 0.19531 l-0.019531 0.17578 c-0.82031 0.29947 -1.4518 0.82682 -1.8945 1.582 c-0.32553 -0.5599 -0.48828 -1.1654 -0.48828 -1.8164 l0 -0.13672 z M161.60134375 21.895 c0.70313 1.224 1.7579 1.8359 3.1641 1.8359 l6.9336 0 c0.65104 0 1.2565 0.16275 1.8164 0.48828 c-1.2109 0.70313 -1.8164 1.7578 -1.8164 3.1641 l0 0.42969 c0 4.2318 -0.89193 7.2982 -2.6758 9.1992 c-2.0963 2.1225 -4.733 3.1836 -7.9102 3.1836 c-2.9947 0 -5.5143 -1.0221 -7.5586 -3.0664 c-1.1979 -1.1979 -1.9596 -2.6041 -2.2852 -4.2188 c-0.19531 -0.96354 -0.32553 -2.2266 -0.39063 -3.7891 c0 -1.4063 -0.61197 -2.4609 -1.8359 -3.1641 c1.224 -0.70313 1.8359 -1.7578 1.8359 -3.1641 c0.065098 -1.5495 0.19531 -2.8189 0.39063 -3.8086 c0.32553 -1.6016 1.0872 -3.0014 2.2852 -4.1992 c2.0572 -2.0443 4.5768 -3.0664 7.5586 -3.0664 c2.526 0 4.6615 0.61197 6.4063 1.8359 c1.6276 1.1328 2.793 2.6822 3.4961 4.6484 c0.3125 0.8724 0.85287 1.5365 1.6211 1.9922 c-0.5599 0.32553 -1.1654 0.48828 -1.8164 0.48828 c-0.71615 0 -1.3737 -0.19531 -1.9727 -0.58594 l-0.019531 -0.37109 l0 -0.078125 c-0.013027 -0.065098 -0.019531 -0.1302 -0.019531 -0.19529 c-0.039063 -0.22135 -0.084629 -0.44922 -0.13672 -0.68359 c-0.18229 -0.75521 -0.47525 -1.4453 -0.87891 -2.0703 c-1.3021 -1.9922 -3.4701 -2.9883 -6.5039 -2.9883 c-3.4115 0 -5.7096 1.2695 -6.8945 3.8086 c-0.83334 1.7969 -1.25 4.8438 -1.25 9.1406 c0 3.8412 0.50131 6.6342 1.5039 8.3789 c1.224 2.1094 3.3789 3.1641 6.4648 3.1641 c2.7344 0 4.8764 -0.95703 6.4258 -2.8711 c1.263 -1.5625 1.8945 -3.3072 1.8945 -5.2344 l0 -4.5313 l-7.8125 0 c-0.33854 -0.58594 -0.50781 -1.1979 -0.50781 -1.8359 c0 -0.65104 0.16275 -1.263 0.48828 -1.8359 z M165.07834375 19.395 c0.10416 -0.15625 0.16275 -0.319 0.17578 -0.48828 l0 -0.039063 c0 -0.20834 -0.078125 -0.41668 -0.23438 -0.62502 c-0.89844 -1.0938 -2.2006 -1.6406 -3.9063 -1.6406 c-1.4583 0 -2.6236 0.49479 -3.4961 1.4844 c-0.42969 0.54688 -0.72916 1.1068 -0.89844 1.6797 c-0.20834 0.6901 -0.33855 1.7318 -0.39064 3.125 c0.039063 1.3672 0.64453 2.3893 1.8164 3.0664 c-1.2109 0.70313 -1.8229 1.7513 -1.8359 3.1445 c0.065098 1.3802 0.18879 2.4088 0.37107 3.0859 c0.18229 0.59896 0.49479 1.1589 0.9375 1.6797 c0.80729 0.96354 1.9727 1.4453 3.4961 1.4453 c1.6146 0 2.9102 -0.52084 3.8867 -1.5625 c0.84635 -0.96354 1.2695 -2.2135 1.2695 -3.75 l0 -1.7188 l-1.5039 0.019531 l-0.039063 0 c-1.3802 0 -2.4219 0.60547 -3.125 1.8164 c-0.32553 -0.57291 -0.48828 -1.1784 -0.48828 -1.8164 c0 -0.65104 0.16928 -1.263 0.50781 -1.8359 l6.9141 0 l0 3.6328 c0 0.61197 -0.10416 1.2695 -0.3125 1.9727 c-0.2474 0.88541 -0.625 1.6797 -1.1328 2.3828 c-1.3281 1.901 -3.3203 2.8516 -5.9766 2.8516 c-2.6172 0 -4.4467 -0.79428 -5.4883 -2.3828 c-1.0547 -1.5755 -1.582 -4.3295 -1.582 -8.2617 c0 -4.3881 0.43619 -7.4219 1.3086 -9.1016 c1.0287 -1.9662 3.0078 -2.9492 5.9375 -2.9492 c2.6693 0 4.5703 0.83334 5.7031 2.5 c0.36459 0.52084 0.63152 1.1068 0.8008 1.7578 c0.05209 0.20834 0.091152 0.41016 0.11719 0.60547 c0 0.065098 0.0065041 0.1302 0.019531 0.19529 l0 0.41016 c-0.61197 0.40365 -1.276 0.60547 -1.9922 0.60547 c-0.65104 0 -1.263 -0.16275 -1.8359 -0.48828 c0.44271 -0.26041 0.76824 -0.52734 0.97658 -0.80078 z M191.0151875 29.219 c0.83334 0 1.5299 0.319 2.0898 0.95703 l-0.25391 -0.019531 l-7.3828 0 l0 4.082 l-0.95703 0 l0.019531 -5.0195 l6.4844 0 z M196.7971875 14.434000000000001 c0.33854 -0.53385 0.55336 -1.1198 0.64451 -1.7578 c0.20834 -0.22135 0.37762 -0.4427 0.50783 -0.66404 c0.32553 0.5599 0.48828 1.1654 0.48828 1.8164 l0 0.058594 c0 0.6901 -0.19531 1.3346 -0.58594 1.9336 l-0.48828 0 c-0.11719 -0.50781 -0.306 -0.97006 -0.56641 -1.3867 z M196.5231875 25.293 c0 0.70313 -0.20182 1.3607 -0.60547 1.9727 l-0.46875 0 c-0.13021 -0.50781 -0.32553 -0.97006 -0.58594 -1.3867 c0.35156 -0.54688 0.57291 -1.1328 0.66406 -1.7578 c0.19531 -0.22135 0.35807 -0.4427 0.48828 -0.66404 c0.33854 0.57291 0.50781 1.1849 0.50781 1.8359 z M194.9611875 30.6055 c0.41666 -0.70313 0.625 -1.4648 0.625 -2.2852 l-0.019531 -0.078125 l0 -0.078125 l0.35156 0 c0.40365 0.625 0.60547 1.2891 0.60547 1.9922 c0 0.65104 -0.16928 1.263 -0.50781 1.8359 c-0.28646 -0.49479 -0.67709 -0.90494 -1.1719 -1.2305 c0.05209 -0.065098 0.091152 -0.11719 0.11719 -0.15625 z M197.4411875 35.8008 c0.20834 -0.20834 0.3776 -0.42967 0.50781 -0.66404 c0.32553 0.57291 0.48828 1.1849 0.48828 1.8359 c0 0.71615 -0.19531 1.3802 -0.58594 1.9922 l-0.48828 0 c-0.11719 -0.52084 -0.3125 -0.98959 -0.58594 -1.4063 c0.35156 -0.53385 0.57291 -1.1198 0.66406 -1.7578 z M197.8511875 39.8633 c0.39063 0.59896 0.58594 1.2565 0.58594 1.9727 c0 0.65104 -0.16275 1.263 -0.48828 1.8359 c-0.28646 -0.49479 -0.67709 -0.90494 -1.1719 -1.2305 c0.05209 -0.065098 0.091152 -0.11719 0.11719 -0.15625 c0.40365 -0.70313 0.60547 -1.4648 0.60547 -2.2852 l0 -0.13672 l0.35156 0 z M192.9491875 17.773 c0.83334 0 1.5299 0.319 2.0898 0.95703 l-0.13672 0 l-0.11719 -0.019531 l-9.3164 0 l0 3.8477 l-0.95703 0 l0.019531 -4.7852 l8.418 0 z M197.8511875 16.719 c0.39063 0.61197 0.58594 1.276 0.58594 1.9922 c0 0.66406 -0.16275 1.276 -0.48828 1.8359 c-0.28646 -0.49479 -0.67709 -0.90494 -1.1719 -1.2305 c0.05209 -0.065098 0.091152 -0.11719 0.11719 -0.15625 c0.40365 -0.70313 0.60547 -1.4648 0.60547 -2.2852 l0 -0.15625 l0.35156 0 z M192.9491875 40.89846 c0.83334 0 1.5234 0.319 2.0703 0.95703 l-0.11719 0 l-0.11719 -0.019531 l-14.785 0.019531 c-0.65104 0 -1.263 -0.16928 -1.8359 -0.50781 c0.19531 -0.11719 0.39713 -0.26693 0.60547 -0.44922 l14.18 0 z M192.9491875 12.012 c1.4063 0 2.4609 -0.61197 3.1641 -1.8359 c0.32553 0.5599 0.48828 1.1654 0.48828 1.8164 c0 0.71615 -0.19531 1.3802 -0.58594 1.9922 l-15.566 0 l0 24.043 l15.566 0 c0.39063 0.59896 0.58594 1.2565 0.58594 1.9727 c0 0.65104 -0.16275 1.263 -0.48828 1.8359 c-0.70313 -1.224 -1.7578 -1.8359 -3.1641 -1.8359 l-14.785 0 c-0.65104 0 -1.263 -0.16275 -1.8359 -0.48828 c1.2109 -0.70313 1.8229 -1.7513 1.8359 -3.1445 l0 -7.207 c-0.013027 -1.4063 -0.625 -2.4609 -1.8359 -3.1641 c1.2109 -0.70313 1.8229 -1.7513 1.8359 -3.1445 l0 -7.207 c-0.013027 -1.3932 -0.625 -2.4414 -1.8359 -3.1445 c0.57291 -0.32553 1.1849 -0.48828 1.8359 -0.48828 l14.785 0 z M194.1801875 30.1562 c-0.70313 -1.224 -1.7578 -1.8359 -3.1641 -1.8359 l-7.3828 0 l-0.019531 6.8164 l9.3359 0 c1.4063 0 2.4609 -0.61197 3.1641 -1.8359 c0.32553 0.57291 0.48828 1.1849 0.48828 1.8359 c0 0.71615 -0.19531 1.3737 -0.58594 1.9727 l-14.668 0 l0 -10.781 l12.734 0 c0.40365 0.625 0.60547 1.2891 0.60547 1.9922 c0 0.65104 -0.16928 1.263 -0.50781 1.8359 z M181.3476875 14.883 l14.668 0.000019073 c0.39063 0.61197 0.58594 1.276 0.58594 1.9922 c0 0.66406 -0.16275 1.276 -0.48828 1.8359 c-0.70313 -1.224 -1.7578 -1.8359 -3.1641 -1.8359 l-9.3164 0 l0 6.582 l7.3828 0 c1.4063 0 2.4609 -0.61197 3.1641 -1.8359 c0.33854 0.57291 0.50781 1.1849 0.50781 1.8359 c0 0.70313 -0.20182 1.3607 -0.60547 1.9727 l-12.734 0 l0 -10.547 z"></path></g></svg>